<?xml version="1.0" encoding="UTF-8"?><svg width="1690px" height="352px" viewBox="0 0 1690 352" version="1.1" xmlns="http://www.w3.org/2000/svg" xmlns:xlink="http://www.w3.org/1999/xlink"><title>solady</title><path d="M1686.1 112.2Q1687.4 114.5 1687.4 117.2L1687.4 140.4Q1687.4 143.1 1686.1 145.4 1684.7 147.7 1682.4 149.1L1603.1 194.9Q1602.7 195.1 1602.4 195.3L1557.5 221.1 1577.4 232.7 1632.4 201Q1634.7 199.6 1637.4 199.6 1640.1 199.6 1642.4 201L1682.4 224.1Q1685.6 225.9 1686.8 229.3 1688.1 232.7 1686.8 236.1 1685.5 239.5 1682.4 241.4L1582.4 299.1Q1580 300.4 1577.4 300.4 1574.8 300.4 1572.4 299.1L1472.4 241.4Q1470.1 240 1468.8 237.7 1467.4 235.4 1467.4 232.7L1467.4 117.2Q1467.4 114.5 1468.8 112.2 1470.1 109.9 1472.4 108.6L1572.4 50.9Q1574.8 49.5 1577.4 49.5 1580 49.5 1582.4 50.9L1682.4 108.6Q1684.7 109.9 1686.1 112.2M1548.8 158.4Q1550.1 156.1 1552.4 154.8L1597.4 128.8 1577.4 117.3 1527.4 146.1 1527.4 203.9 1547.4 215.4 1547.4 163.4Q1547.4 160.7 1548.8 158.4M1343.9 49.5Q1346.5 49.5 1348.9 50.9L1448.9 108.6Q1451.2 109.9 1452.6 112.2 1453.9 114.5 1453.9 117.2L1453.9 232.7Q1453.9 235.4 1452.6 237.7 1451.2 240 1448.9 241.4L1348.9 299.1Q1346.5 300.4 1343.9 300.4 1341.3 300.4 1338.9 299.1L1238.9 241.4Q1235.8 239.5 1234.5 236.1 1233.2 232.7 1234.5 229.3 1235.7 225.9 1238.9 224.1L1278.9 201Q1281.2 199.6 1283.9 199.6 1286.6 199.6 1288.9 201L1343.9 232.7 1393.9 203.9 1393.9 180.7Q1391.6 182.1 1389 183.7L1369.6 194.8Q1369.3 195 1368.9 195.3L1348.9 206.8Q1346.6 208.1 1343.9 208.1 1341.2 208.1 1338.9 206.8L1318.9 195.3Q1318.5 195 1318.2 194.8L1238.9 149.1Q1236.6 147.7 1235.3 145.4 1233.9 143.1 1233.9 140.4L1233.9 117.2Q1233.9 114.5 1235.3 112.2 1236.6 109.9 1238.9 108.6L1338.9 50.9Q1341.3 49.5 1343.9 49.5M1324 128.8 1393.9 169.2 1393.9 146.1 1343.9 117.3 1324 128.8M1220.4 59.5 1220.4 232.7Q1220.4 235.4 1219.1 237.7 1217.7 240 1215.4 241.4L1115.4 299.1Q1113 300.4 1110.4 300.4 1107.8 300.4 1105.4 299.1L1005.4 241.4Q1003.1 240 1001.8 237.7 1000.4 235.4 1000.4 232.7L1000.4 209.6Q1000.4 207 1001.8 204.7 1003.1 202.3 1005.4 201L1125.4 131.7Q1128.5 129.8 1132.1 130.5 1135.7 131.1 1138.1 133.9 1140.4 136.6 1140.4 140.3L1140.4 186.6Q1140.4 189.2 1139.1 191.6 1137.7 193.9 1135.4 195.3L1090.5 221.2 1110.4 232.7 1160.4 203.9 1160.4 82.6Q1160.4 80 1161.8 77.7 1163.1 75.3 1165.4 74L1205.4 50.9Q1208.5 49 1212.1 49.7 1215.7 50.3 1218.1 53.1 1220.4 55.8 1220.4 59.5M992.9 140.4Q992.9 143.1 991.6 145.4 990.2 147.7 987.9 149.1L908.6 194.9Q908.2 195.1 907.9 195.3L863 221.1 882.9 232.7 937.9 201Q940.2 199.6 942.9 199.6 945.6 199.6 947.9 201L987.9 224.1Q991.1 225.9 992.3 229.3 993.6 232.7 992.3 236.1 991 239.5 987.9 241.4L887.9 299.1Q885.5 300.4 882.9 300.4 880.3 300.4 877.9 299.1L777.9 241.4Q775.6 240 774.3 237.7 772.9 235.4 772.9 232.7L772.9 117.2Q772.9 114.5 774.3 112.2 775.6 109.9 777.9 108.6L877.9 50.9Q880.3 49.5 882.9 49.5 885.5 49.5 887.9 50.9L987.9 108.6Q990.2 109.9 991.6 112.2 992.9 114.5 992.9 117.2L992.9 140.4M1090.4 196.5 1097.3 179.6 1080.5 186.6 1090.4 196.5M854.3 158.4Q855.6 156.1 857.9 154.8L902.9 128.8 882.9 117.3 832.9 146.1 832.9 203.9 852.9 215.4 852.9 163.4Q852.9 160.7 854.3 158.4M763.4 241.4 663.4 299.1Q661 300.4 658.4 300.4 655.8 300.4 653.4 299.1L553.4 241.4Q551.1 240 549.8 237.7 548.4 235.4 548.4 232.7L548.4 59.5Q548.4 55.8 550.8 53.1 553.1 50.3 556.7 49.7 560.3 49 563.4 50.9L603.4 74Q605.7 75.3 607.1 77.7 608.4 80 608.4 82.6L608.4 203.9 658.4 232.7 713.4 201Q715.7 199.6 718.4 199.6 721.1 199.6 723.4 201L763.4 224.1Q766.6 225.9 767.8 229.3 769.1 232.7 767.8 236.1 766.5 239.5 763.4 241.4M533.7 88.4Q535.3 91.2 535 94.3 534.9 95.5 534.6 96.6L534.3 97.2 532.6 99.9Q532.6 100 532.6 100.1L474.3 167.6Q472.5 169.6 469.9 170.5 467.3 171.3 464.7 170.8 462 170.2 460 168.4 459.7 168.2 459.5 168 459.3 167.9 459.1 167.8L459 167.7Q457 166.6 454.6 166.6 452.2 166.6 450.3 167.7 450.1 167.8 449.9 168 449 168.5 448.4 169.2L448.3 169.3Q447.6 170 447.1 170.8 445.9 172.6 445.8 174.9 445.8 175.1 445.8 175.3 445.8 179 448.3 181.6L448.4 181.6Q448.9 182 449.3 182.4 449.7 182.7 449.9 182.9 450.1 183 450.3 183.1 452.2 184.3 454.7 184.2 456.8 184.2 458.5 183.3 459 183 459.6 182.7 460 182.5 460.3 182.1 463.5 179.6 467.5 179.9 471.6 180.3 474.2 183.3L532.6 250.7Q534.7 253.2 535 256.3 535.2 257.9 534.8 259.5L533.7 262.3 533.7 262.4Q532.8 263.9 531.5 265.1 530.4 265.9 529.2 266.5 526.2 267.8 523.1 267.2L435.6 250.3Q431.7 249.5 429.4 246.3 428.8 245.4 428.4 244.6L427.8 243.1 427.6 242.1Q427.3 240.4 427.6 238.5 427.7 238.3 427.7 238.2 427.7 238 427.7 237.9L427.7 237.8Q427.7 237.6 427.7 237.4 427.7 237.3 427.7 237.2 427.7 235.1 426.6 233.2L426.5 233Q425.3 231 423.5 229.9L423.4 229.8Q422.9 229.6 422.6 229.4 421.9 229.1 421.2 228.9L421.1 228.9Q417.6 227.9 414.4 229.8 414.2 229.9 414 230.1 412.3 231.1 411.3 232.8 410.7 233.7 410.4 234.8 410.4 234.9 410.3 235 410.2 235.5 410.1 236.1 410 236.2 410 236.3 410 236.5 410 236.7L410 236.8Q410 237 410 237.2 410 239.5 411.2 241.7 411.3 241.7 411.3 241.8 412.5 243.7 414.2 244.8L414.3 244.9Q414.6 245 414.8 245.1 415 245.3 415.2 245.3 417.9 246.2 419.7 248.2 421.5 250.2 422.1 252.9 422.3 253.8 422.3 254.6 422.4 256.5 421.8 258.4L392.6 342.6Q391.5 345.6 388.9 347.5 386.3 349.3 383.1 349.3 379.9 349.3 377.3 347.5 375.2 345.9 374.1 343.7 373.8 343.1 373.6 342.5L344.4 258.3Q343.1 254.5 344.8 250.8 346.5 247.1 350.3 245.6 350.8 245.5 351.2 245.2 351.6 245 351.9 244.8 353.1 244.1 354 243.1 354.5 242.5 355 241.8 356.1 239.9 356.2 237.8L356.2 237.6Q356.2 237.5 356.2 237.3 356.2 236.7 356.1 236.1L356.2 236.4Q356 235.7 355.9 235.1L355.8 235Q354.9 231.8 352.2 230.1 351.8 229.9 351.5 229.6 348.4 228 345 228.9 344.9 228.9 344.8 228.9 344.2 229.1 343.6 229.3 343 229.7 342.4 230 340.8 231 339.8 232.8 339.7 232.8 339.7 232.9L339.7 233Q338.8 234.6 338.5 236.2 338.4 236.6 338.4 237.1 338.4 237.3 338.5 237.6 338.6 238.1 338.6 238.5 339.2 241.3 338.2 243.9 337.6 245.5 336.4 247 334.1 249.7 330.6 250.4L243 267.2Q239.9 267.8 237 266.5 234 265.2 232.5 262.4 230.9 259.6 231.2 256.5 231.4 253.9 232.8 251.9 233.1 251.3 233.6 250.7L291.9 183.2Q293.7 181.2 296.3 180.3 298.9 179.5 301.5 180 304.2 180.6 306.2 182.4 306.5 182.6 306.7 182.8 306.9 182.9 307.1 183L307.2 183.1Q309.2 184.2 311.6 184.2 314 184.2 315.9 183.1 316.1 183 316.3 182.8 317.2 182.3 317.8 181.6L317.9 181.5Q318.6 180.9 319.1 180.1 320.3 178.2 320.4 175.9 320.4 175.7 320.4 175.5 320.4 171.8 317.9 169.2L317.8 169.2Q317.3 168.8 316.9 168.4 316.5 168.1 316.3 167.9 316.1 167.8 315.9 167.7 314 166.5 311.5 166.6 309.4 166.6 307.7 167.5 307.2 167.8 306.6 168.1 306.2 168.3 305.9 168.7 302.7 171.2 298.7 170.9 294.6 170.5 292 167.5L233.6 100.1Q231.5 97.6 231.2 94.5 230.9 91.3 232.5 88.5L232.5 88.4 233.4 87.2Q234.8 85.3 237 84.3 240 83 243.1 83.6L330.6 100.5Q334.5 101.3 336.8 104.5 337.7 105.8 338.2 107.2L338.7 109.7 338.7 110.7Q338.7 111.5 338.6 112.3 338.5 112.3 338.5 112.4 338.5 112.6 338.5 112.9L338.5 113Q338.5 113.2 338.5 113.4 338.5 113.5 338.5 113.6 338.5 115.7 339.6 117.6L339.7 117.8Q340.9 119.8 342.7 120.9L342.8 121Q343.3 121.2 343.6 121.4 344.3 121.7 345 121.9L345.1 121.9Q348.6 122.9 351.8 121 352 120.9 352.2 120.7 353.9 119.6 354.9 118.1 355.5 117.1 355.8 116 355.8 115.9 355.9 115.8 355.9 115.7 355.9 115.6 356 115.1 356.2 114.6L356.2 114.5Q356.2 114.3 356.2 114.1L356.2 114Q356.2 113.8 356.2 113.6 356.2 111.3 355 109.1 354.9 109.1 354.9 109 353.7 107.1 352 106L351.9 105.9Q351.6 105.8 351.4 105.7 351.2 105.5 351 105.5 348.3 104.6 346.5 102.6 344.7 100.6 344.1 97.9 344.1 97.7 344.1 97.5 343.5 95 344.4 92.4L373.6 8.2Q374.7 5.2 377.3 3.3 379.9 1.5 383.1 1.5 386.3 1.5 388.9 3.3 391.3 5 392.3 7.7L392.4 8Q392.5 8.1 392.5 8.2L392.6 8.3 421.8 92.5Q423.1 96.3 421.4 100 419.7 103.7 415.9 105.2 415.4 105.3 415 105.6 414.6 105.8 414.3 106 413.4 106.5 412.7 107.2 411.9 107.9 411.3 108.9L411.2 109 411.2 109.1 410.5 110.5Q410.1 111.7 410 113L410 113.2Q410 113.3 410 113.5 410 114.1 410.1 114.7L410 114.4Q410.2 115.1 410.3 115.7L410.4 115.8Q411.3 119 414 120.7 414.4 120.9 414.7 121.2 417.8 122.8 421.2 121.9 421.3 121.9 421.4 121.9 422 121.7 422.6 121.5 423.2 121.1 423.8 120.8 425.3 119.9 426.4 118.2 426.4 118 426.5 117.9L426.5 117.8Q427 116.9 427.4 116.1 427.6 115.3 427.7 114.6 427.7 114.3 427.8 114.1L427.8 113.9Q427.7 113.5 427.7 113.2 427.6 112.7 427.6 112.3 427 109.2 428.2 106.6 428.7 105.1 429.8 103.8 432.1 101.1 435.6 100.4L523.2 83.6Q526.3 83 529.2 84.3 532.2 85.6 533.7 88.4M388.1 168.1Q387.7 167.9 387.4 167.7 385.5 166.6 383.1 166.6 380.7 166.5 378.9 167.7 378.6 167.8 378.4 168 377.5 168.5 376.8 169.2 376.7 169.3 376.6 169.4 376.2 169.8 375.9 170.2 374.5 172.3 374.3 174.8 374.3 175 374.3 175.3 374.3 179 376.8 181.6 377.4 182.2 378 182.7L378.1 182.7Q378.5 182.9 378.8 183.1 380.7 184.2 383.1 184.2 385.5 184.3 387.3 183.1 387.6 183 387.8 182.8 388.7 182.3 389.4 181.6 389.5 181.5 389.6 181.4 390.7 180.2 391.3 178.9 391.8 177.5 391.9 176 391.9 175.8 391.9 175.5 391.9 171.8 389.4 169.2 388.8 168.6 388.2 168.1L388.1 168.1M216.1 125.9 176.1 149Q173.8 150.3 171.1 150.3 168.4 150.3 166.1 149L111.1 117.3 91.2 128.8 216.1 201Q218.4 202.3 219.8 204.7 221.1 207 221.1 209.6L221.1 232.7Q221.1 235.4 219.8 237.7 218.4 240 216.1 241.4L116.1 299.1Q113.7 300.4 111.1 300.4 108.5 300.4 106.1 299.1L6.1 241.4Q3 239.5 1.7 236.1 0.4 232.7 1.7 229.3 2.9 225.9 6.1 224.1L46.1 201Q48.4 199.6 51.1 199.6 53.8 199.6 56.1 201L111.1 232.7 131.1 221.2 86.1 195.3Q85.7 195 85.4 194.8L6.1 149.1Q3.8 147.7 2.5 145.4 1.1 143.1 1.1 140.4L1.1 117.2Q1.1 114.5 2.5 112.2 3.8 109.9 6.1 108.6L106.1 50.9Q108.5 49.5 111.1 49.5 113.7 49.5 116.1 50.9L216.1 108.6Q219.2 110.4 220.5 113.8 221.8 117.2 220.5 120.6 219.3 124 216.1 125.9M141.1 186.6 124.2 179.6 131.2 196.5 141.1 186.6" fill="#fff"/><path d="M1677.4 140.4 1597.5 186.5 1597.4 186.5 1597.4 186.6 1557.4 209.7 1557.4 163.4 1617.4 128.8 1577.4 105.7 1517.4 140.3 1517.4 209.6 1577.4 244.2 1637.4 209.6 1677.4 232.7 1577.4 290.4 1477.4 232.7 1477.4 117.2 1577.4 59.5 1677.4 117.2 1677.4 140.4M1323.9 186.6 1323.9 186.5 1323.8 186.5 1243.9 140.4 1243.9 117.2 1343.9 59.5 1443.9 117.2 1443.9 232.7 1343.9 290.4 1243.9 232.7 1283.9 209.6 1343.9 244.2 1403.9 209.6 1403.9 140.3 1343.9 105.7 1304 128.8 1384 175 1364 186.5 1363.9 186.5 1363.9 186.6 1343.9 198.1 1323.9 186.6M1210.4 59.5 1210.4 232.7 1110.4 290.4 1010.4 232.7 1010.4 209.6 1130.4 140.3 1130.4 186.6 1070.5 221.2 1110.4 244.2 1170.4 209.6 1170.4 82.6 1210.4 59.5M982.9 140.4 903 186.5 902.9 186.5 902.9 186.6 862.9 209.7 862.9 163.4 922.9 128.8 882.9 105.7 822.9 140.3 822.9 209.6 882.9 244.2 942.9 209.6 982.9 232.7 882.9 290.4 782.9 232.7 782.9 117.2 882.9 59.5 982.9 117.2 982.9 140.4M1090.3 186.5 1090.4 186.6 1090.4 186.5 1090.3 186.5M718.4 209.6 758.4 232.7 658.4 290.4 558.4 232.7 558.4 59.5 598.4 82.6 598.4 209.6 658.4 244.2 718.4 209.6M211.1 117.2 171.1 140.3 111.1 105.7 71.2 128.8 211.1 209.6 211.1 232.7 111.1 290.4 11.1 232.7 51.1 209.6 111.1 244.2 151.1 221.2 91.1 186.6 91.1 186.5 91 186.5 11.1 140.4 11.1 117.2 111.1 59.5 211.1 117.2M364.3 176.3 364.3 176.4Q364.6 183.6 369.7 188.8 371.6 190.6 373.6 191.8 373.8 191.9 374 192L374.1 192.1Q378.1 194.3 383.1 194.3 388.1 194.3 392.2 192 392.4 191.9 392.6 191.8 394.6 190.6 396.4 188.8 401.6 183.6 401.9 176.4L401.9 176.3Q401.9 175.9 401.9 175.5 401.9 167.6 396.4 162.1 394.8 160.5 393 159.3L392.9 159.3Q392.7 159.2 392.5 159.1 388.3 156.6 383.1 156.6 377.8 156.6 373.7 159.1 373.5 159.2 373.3 159.3 371.4 160.5 369.7 162.1 364.2 167.6 364.2 175.5 364.2 175.9 364.3 176.3M412.3 95.8Q411 96.3 409.8 96.9 409.6 97.1 409.4 97.2 405.1 99.6 402.5 104.1 399.9 108.6 399.9 113.5 399.9 113.7 399.9 113.9 400 116.1 400.6 118.4 402.6 125.9 409.4 129.8L409.4 129.9Q409.8 130.1 410.1 130.2L410.2 130.3Q416.6 133.6 423.7 131.7 426.2 131.1 428.3 129.9 428.5 129.8 428.7 129.7L428.7 129.6Q432.7 127.3 435.1 123 437.7 118.6 437.8 113.9 437.7 113.7 437.8 113.5 437.7 112 437.4 110.4L525 93.5 466.7 161Q465.6 160 464.5 159.3L464.4 159.3Q464.2 159.2 464.1 159.1 459.8 156.6 454.6 156.6 449.4 156.6 445.2 159.1 445 159.2 444.8 159.3 442.9 160.5 441.3 162.1 435.7 167.6 435.7 175.5 435.7 175.9 435.8 176.3L435.8 176.4Q436.1 183.6 441.3 188.8 443.1 190.6 445.2 191.8 445.3 191.9 445.5 192 445.6 192 445.6 192.1 449.6 194.3 454.6 194.3 459.6 194.3 463.7 192 463.9 191.9 464.1 191.8 465.4 191 466.6 190L525 257.4 437.5 240.5Q437.7 239.2 437.7 237.9L437.7 237.8Q437.7 237.6 437.7 237.4 437.8 232.5 435.1 228 432.5 223.5 428.3 221.1 428.1 221 427.9 220.9L427.9 220.8Q426 219.8 423.7 219.2 416.2 217.2 409.4 221.1 409 221.3 408.7 221.5L408.6 221.6Q402.5 225.5 400.6 232.5 399.9 235 399.9 237.4 399.9 237.6 399.9 237.8L399.9 237.9Q400 242.5 402.5 246.8 405 251.2 409 253.6 409.2 253.7 409.4 253.8 410.8 254.5 412.3 255.1L383.1 339.3 353.9 255Q355.4 254.5 356.8 253.7 356.9 253.6 357.1 253.5L357.2 253.5Q361.1 251.1 363.6 246.8 366.1 242.5 366.2 237.8L366.2 237.7Q366.2 237.5 366.2 237.3 366.2 235.8 365.9 234.2 365.7 233.3 365.5 232.5 363.6 225.4 357.5 221.6 357.5 221.5 357.4 221.5 357.1 221.3 356.8 221.1L356.7 221.1Q349.9 217.2 342.4 219.2 341.5 219.4 340.8 219.7 339.4 220.1 338.3 220.8L338.2 220.8Q338 220.9 337.8 221 333.6 223.4 331 228 328.4 232.5 328.4 237.3 328.4 237.5 328.4 237.7L328.4 237.8Q328.4 239.1 328.7 240.5L328.7 240.6 241.1 257.4 299.5 190Q300.8 191 302.1 191.8 302.3 191.9 302.5 192L302.5 192.1Q306.6 194.3 311.5 194.3 316.6 194.3 320.6 192L320.7 192Q320.9 191.9 321 191.8 322.3 191 323.6 190 324.3 189.4 324.9 188.8 330 183.6 330.4 176.4L330.4 176.3Q330.4 175.9 330.4 175.5 330.4 167.6 324.9 162.1 324.3 161.5 323.6 161 322.5 160 321.4 159.3 321.2 159.2 321 159.1 316.8 156.6 311.5 156.6 306.3 156.6 302.1 159.1 302 159.2 301.8 159.3L301.7 159.3Q300.6 160 299.5 160.9L241.1 93.5 328.7 110.4Q328.4 112 328.4 113.6 328.4 113.8 328.4 114L328.4 114.1Q328.5 118.7 331 123 333.5 127.3 337.5 129.7L337.5 129.8Q337.7 129.9 337.8 130 339.2 130.7 340.8 131.2 341.6 131.5 342.4 131.7 349.5 133.6 355.9 130.3L356 130.3Q356.4 130.1 356.7 129.9 356.8 129.9 356.8 129.8 363.5 125.9 365.5 118.4 365.7 117.6 365.9 116.7 366.2 115.4 366.2 114.1L366.2 114Q366.2 113.8 366.2 113.6 366.2 108.7 363.6 104.1 361 99.6 356.8 97.2 356.6 97.1 356.4 97 355.2 96.3 353.9 95.9L383.1 11.6 412.3 95.8M131.1 186.6 131.2 186.5 131.1 186.5 131.1 186.6" fill="#000"/></svg>